<?xml version="1.0" standalone="no"?><!DOCTYPE svg PUBLIC "-//W3C//DTD SVG 1.1//EN" "http://www.w3.org/Graphics/SVG/1.1/DTD/svg11.dtd"><svg t="1676882912674" class="icon" viewBox="0 0 1024 1024" version="1.1" xmlns="http://www.w3.org/2000/svg" p-id="18208" xmlns:xlink="http://www.w3.org/1999/xlink" width="200" height="100"><path d="M482.181 422.542c0 37.74-24.228 71.753-59.639 84.333l0 362.957c0 32.615-27.023 59.639-59.639 59.639l-59.639 0c-32.614 0-59.639-27.023-59.639-59.639L243.625 506.875c-35.41-12.58-59.639-46.593-59.639-84.333L183.986 124.349c0-16.308 13.512-29.819 29.819-29.819s29.819 13.512 29.819 29.819l0 193.826c0 16.308 13.512 29.819 29.819 29.819s29.819-13.512 29.819-29.819L303.262 124.349c0-16.308 13.512-29.819 29.819-29.819s29.819 13.512 29.819 29.819l0 193.826c0 16.308 13.512 29.819 29.819 29.819s29.819-13.512 29.819-29.819L422.538 124.349c0-16.308 13.512-29.819 29.819-29.819s29.819 13.512 29.819 29.819L482.176 422.542zM840.013 869.832c0 32.615-27.023 59.639-59.639 59.639l-59.639 0c-32.615 0-59.639-27.023-59.639-59.639L661.096 631.277 556.729 631.277c-7.921 0-14.91-6.989-14.91-14.91L541.819 243.626c0-82.003 67.094-149.097 149.097-149.097l119.277 0c16.308 0 29.819 13.512 29.819 29.819L840.012 869.832z" p-id="18209"></path></svg>