<?xml version="1.0" standalone="no"?><!DOCTYPE svg PUBLIC "-//W3C//DTD SVG 1.1//EN" "http://www.w3.org/Graphics/SVG/1.1/DTD/svg11.dtd"><svg t="1659886021888" class="icon" viewBox="0 0 1160 1024" version="1.1" xmlns="http://www.w3.org/2000/svg" p-id="1793" xmlns:xlink="http://www.w3.org/1999/xlink" width="226.5625" height="200"><defs><style type="text/css">@font-face { font-weight: 400; font-style: normal; font-family: Circular-Loom; src: url("https://cdn.loom.com/assets/fonts/circular/CircularXXWeb-Book-cd7d2bcec649b1243839a15d5eb8f0a3.woff2") format("woff2"); }
@font-face { font-weight: 500; font-style: normal; font-family: Circular-Loom; src: url("https://cdn.loom.com/assets/fonts/circular/CircularXXWeb-Medium-d74eac43c78bd5852478998ce63dceb3.woff2") format("woff2"); }
@font-face { font-weight: 700; font-style: normal; font-family: Circular-Loom; src: url("https://cdn.loom.com/assets/fonts/circular/CircularXXWeb-Bold-83b8ceaf77f49c7cffa44107561909e4.woff2") format("woff2"); }
@font-face { font-weight: 900; font-style: normal; font-family: Circular-Loom; src: url("https://cdn.loom.com/assets/fonts/circular/CircularXXWeb-Black-bf067ecb8aa777ceb6df7d72226febca.woff2") format("woff2"); }
@font-face { font-family: feedback-iconfont; src: url("//at.alicdn.com/t/font_1031158_u69w8yhxdu.woff2?t=1630033759944") format("woff2"), url("//at.alicdn.com/t/font_1031158_u69w8yhxdu.woff?t=1630033759944") format("woff"), url("//at.alicdn.com/t/font_1031158_u69w8yhxdu.ttf?t=1630033759944") format("truetype"); }
</style></defs><path d="M201.510851 497.343722c-53.372801 30.804879-53.319227 130.82698 0.107147 223.375551s140.01487 142.586408 193.387671 111.768136 53.33262-130.813587-0.107147-223.362158S254.870258 466.538843 201.510851 497.343722z m168.757161 293.155298c-32.144221 18.590075-90.700278-22.474168-130.679652-91.718178s-46.301072-140.430067-14.103277-159.020142 90.700278 22.474168 130.679652 91.704785 46.247498 140.44346 14.103277 159.033535z" p-id="1794"></path><path d="M1065.480551 155.155093a124.987447 124.987447 0 1 0-225.63904 38.640033l-61.315102 38.613246a71.507499 71.507499 0 0 0-8.705727 6.80386c-104.790161-77.132738-267.721183-95.575484-427.946732-40.675834-130.693046 44.774222-214.120694 89.588623-265.685382 135.273598-1.165228 0.93754-2.276882 1.928653-3.415323 2.89298-2.075981 1.888473-4.018028 3.776946-5.973468 5.665419a168.060703 168.060703 0 0 0-13.875589 14.250605c-0.790212 0.870573-1.794719 1.741145-2.558144 2.678685 0.227688-0.093754 0.455376-0.147328 0.696458-0.241082-74.762101 90.887786-68.172536 266.355053 24.684083 427.250274 108.647468 188.003514 293.865149 284.476358 413.722915 215.285922 234.197439-115.183459 429.928959-443.536679 381.203677-622.33891a3.026914 3.026914 0 0 1 0.294655-0.147328l58.435516-36.818526a124.907086 124.907086 0 1 0 136.077203-187.132942z m-598.01645 807.047642c-98.669366 56.962239-256.577853-31.916533-352.823008-198.530747s-94.195962-347.867441 4.473404-404.829679 256.64482 31.916533 352.836402 198.530746 94.195962 347.867441-4.486798 404.82968z" p-id="1795"></path></svg>