<?xml version="1.0" standalone="no"?><!DOCTYPE svg PUBLIC "-//W3C//DTD SVG 1.1//EN" "http://www.w3.org/Graphics/SVG/1.1/DTD/svg11.dtd"><svg t="1659885174164" class="icon" viewBox="0 0 1170 1024" version="1.1" xmlns="http://www.w3.org/2000/svg" p-id="43750" xmlns:xlink="http://www.w3.org/1999/xlink" width="228.515625" height="200"><defs><style type="text/css">@font-face { font-weight: 400; font-style: normal; font-family: Circular-Loom; src: url("https://cdn.loom.com/assets/fonts/circular/CircularXXWeb-Book-cd7d2bcec649b1243839a15d5eb8f0a3.woff2") format("woff2"); }
@font-face { font-weight: 500; font-style: normal; font-family: Circular-Loom; src: url("https://cdn.loom.com/assets/fonts/circular/CircularXXWeb-Medium-d74eac43c78bd5852478998ce63dceb3.woff2") format("woff2"); }
@font-face { font-weight: 700; font-style: normal; font-family: Circular-Loom; src: url("https://cdn.loom.com/assets/fonts/circular/CircularXXWeb-Bold-83b8ceaf77f49c7cffa44107561909e4.woff2") format("woff2"); }
@font-face { font-weight: 900; font-style: normal; font-family: Circular-Loom; src: url("https://cdn.loom.com/assets/fonts/circular/CircularXXWeb-Black-bf067ecb8aa777ceb6df7d72226febca.woff2") format("woff2"); }
@font-face { font-family: feedback-iconfont; src: url("//at.alicdn.com/t/font_1031158_u69w8yhxdu.woff2?t=1630033759944") format("woff2"), url("//at.alicdn.com/t/font_1031158_u69w8yhxdu.woff?t=1630033759944") format("woff"), url("//at.alicdn.com/t/font_1031158_u69w8yhxdu.ttf?t=1630033759944") format("truetype"); }
</style></defs><path d="M959.817 187.173c126.354 24.868 195.73 88.43 207.726 185.307 11.081 89.71-15.36 148.187-81.554 180.37-18.03-136.484-111.982-187.245-204.544-149.065-31.818-39.753-61.44-81.737-96.403-118.308-20.663-21.65-48.018-44.618-75.41-49.738-70.363-13.092-109.166-43.3-122.368-122.148-11.52-68.681 16.53-128 83.09-107.959 67.584 20.297 134.4 28.416 202.387 40.338 62.317 10.972 91.648 70.4 87.076 141.166zM378.405 947.017c-45.349 8.668-91.795 27.648-135.827 22.93-38.729-4.132-86.418-25.417-109.495-55.734-43.812-57.6-39.753-127.781 15.909-177.957 44.763-40.338 96.475-77.093 151.186-100.352 181.54-77.093 362.935-53.723 544.293 17.554-178.14 63.708-330.752 167.022-468.114 295.497l2.048-1.938z" p-id="43751"></path><path d="M654.263 762.039L897.755 660.48l5.084-14.629-186.222-70.473c48.933-38.985 103.278-81.188 156.38-124.964 35.291-29.075 70.912-48.86 116.297-23.625 44.653 24.868 75.556 63.158 69.668 114.834-6.692 58.953 15.068 103.022 41.18 151.588 18.395 34.122 29.33 78.958 26.039 117.395-4.901 57.417-41.07 68.169-90.698 39.607-17.005-9.802-38.034-14.629-57.746-16.53-78.263-7.498-151.04-57.857-235.959-24.394-22.308 8.777-57.49-16.932-86.784-26.843l-0.731-20.407zM537.088 242.688c77.458-15.067 155.685 0 232.448 69.376-99.474 8.192-147.785 81.189-209.774 135.131-30.061 26.186-66.194 67.475-103.68 3.548-3.913-6.693-23.625-6.583-35.328-4.937-60.27 8.594-96.914-25.82-96.292-87.15 0.183-18.578-7.059-41.618-18.944-55.186-45.349-51.603-54.711-112.53-21.724-172.215a160.695 160.695 0 0 1 176.823-79.836c61.111 13.532 116.517 69.852 115.017 128.366-0.548 21.65-25.417 42.642-38.546 62.903z" p-id="43752"></path><path d="M18.578 822.565c68.023 29.22 93.111 78.848 80.823 149.833L18.578 822.565z m357.779 126.39l104.301-43.593c-107.264 124.343-312.612 158.025-350.793 59.392 87.516 27.502 171.374 39.79 248.503-17.7l-2.011 1.901z m222.939-389.851c38.18-63.598 70.254-127.195 112.896-182.199 14.007-18.103 61.257-27.282 82.761-17.079 40.594 19.2 43.41 63.488 19.09 100.974-50.834 78.519-127.597 101.083-214.747 98.267z m90.624 350.647c-74.13 73.508-134.766-39.863-208.823-11.959l-6.144-13.824c43.557-29.733 86.236-61.074 131.401-87.918 9.107-5.412 27.758 6.035 41.948 9.875 36.388 9.837 77.348 35.84 108.251 26.55 84.188-25.234 156.16 23.187 234.752 26.442 44.91 1.828 54.93 34.45 22.492 66.45-20.334 20.004-51.274 38.656-78.154 39.79-69.12 2.852-138.898-2.341-207.872-9.436-12.544-1.28-22.747-26.77-37.851-45.97z m-21.504-536.32c-13.385 87.662-56.247 148.992-136.594 174.007-63.89 19.895-131.145 29.44-193.646 52.809-58.441 21.833-117.029 49.371-167.131 86.455-38.474 28.452-63.854 75.556-101.523 122.404-72.887 1.5-86.381-48.823-50.212-117.504 25.417-48.274 81.664-81.92 128.987-114.834 59.319-41.216 123.575-74.971 197.888-119.186 32.951 11.812 82.871 37.12 135.351 45.348 26.587 4.17 61.074-17.847 86.053-36.388 36.425-27.063 67.474-61.733 100.827-93.111z" p-id="43753"></path></svg>